<?xml version="1.0" encoding="UTF-8" standalone="no"?> <!-- Created with Vectornator for iOS (http://vectornator.io/) --><!DOCTYPE svg PUBLIC "-//W3C//DTD SVG 1.1//EN" "http://www.w3.org/Graphics/SVG/1.1/DTD/svg11.dtd">
<svg height="100%" style="fill-rule:evenodd;clip-rule:evenodd;stroke-linecap:round;stroke-linejoin:round;" xmlns="http://www.w3.org/2000/svg" viewBox="0 0 100 100">
<g id="Layer 1">
<path stroke="#000000" stroke-width="1" d="M27.6878+97.1695C30.838+81.0852+52.9966+77.4124+65.0604+85.8001C68.3279+88.0719+71.9409+97.4294+72.0484+97.2773L70.3142+97.602C70.3405+98.5325+66.6086+92.0616+64.4879+89.9572C54.1544+79.7023+34.3391+84.0188+29.3204+97.2838" fill="#000000" stroke-linecap="butt" opacity="1" stroke-linejoin="round"/>
<path stroke="#000000" stroke-width="1" d="M30.7716+84.6528C25.9494+77.5896+20.0779+65.4631+19.394+56.9449C18.754+48.9741+22.7298+41.566+31.08+47.9207C38.0368+53.2148+42.483+63.9724+45.381+71.9404C45.9232+73.4311+49.4459+81.9468+47.6098+81.9209L47.4294+81.2902C45.6258+81.9609+43.1682+72.911+42.5396+71.3476C40.1773+65.4725+32.8368+45.0542+23.5904+47.6079C20.7932+48.3804+21.079+55.6864+21.5257+57.907C23.3471+66.961+28.1296+75.9907+32.0771+84.2192" fill="#000000" stroke-linecap="butt" opacity="1" stroke-linejoin="round"/>
<path stroke="#000000" stroke-width="1" d="M54.7484+84.4163C57.6617+76.1242+61.8896+37.406+79.5559+47.663C88.9485+53.1164+78.6014+71.7962+75.3437+78.2397C74.4707+79.9665+69.9216+89.2379+68.5593+90.3431C67.197+91.4482+67.9146+91.2553+67.9146+91.2553C66.0281+90.7342+71.0489+81.2999+71.6405+79.7563C74.3923+72.5765+85.3849+55.234+79.5245+49.9887C71.0781+42.4287+64.8821+55.4167+61.1043+68.5686C60.9871+68.9767+59.0267+80.0652+56.1545+84.8014" fill="#000000" stroke-linecap="butt" opacity="1" stroke-linejoin="round"/>
<path stroke="#000000" stroke-width="1" d="M29.3682+59.9049C30.8113+65.686+32.8246+70.7106+35.7676+75.7113C36.7587+77.3953+37.9956+79.0002+39.0273+80.7116C39.3608+81.2649+41.0164+81.977+40.3818+82.0978C38.8807+82.3835+39.0518+81.9984+38.9245+82.8011L39.8908+83.0657C38.2088+90.813+27.195+63.0252+27.1267+59.8549" fill="#000000" stroke-linecap="butt" opacity="1" stroke-linejoin="round"/>
<path stroke="#000000" stroke-width="1" d="M72.7615+60.227C72.8512+60.1573+71.4831+67.3592+69.0545+73.8888C67.0131+79.3774+64.3638+84.4752+63.2984+83.9805L62.5337+85.1271C61.4521+85.0187+64.4838+78.392+66.9448+72.2403C68.7836+67.6436+69.5288+62.2476+69.9556+59.4586" fill="#000000" stroke-linecap="butt" opacity="1" stroke-linejoin="round"/>
<path stroke="#000000" stroke-width="1" d="M31.4221+84.3564L31.4829+84.4547L31.6973+84.8011C32.8659+86.5987+33.3587+86.2166+32.5296+87.343C32.2748+87.6891+31.9734+86.6815+31.7615+86.3076C31.044+85.0419+30.5907+83.5084+29.8264+82.2395C29.5531+81.7859+28.6695+80.4653+28.9483+80.9155C29.0952+81.1527+34.2957+86.3726+34.7209+86.5775L34.6596+86.8013C33.4308+87.5084+28.1366+81.9494+29.6177+80.399C30.5358+79.4379+35.7327+93.959+30.6054+84.679" fill="#000000" stroke-linecap="butt" opacity="1" stroke-linejoin="round"/>
<path stroke="#000000" stroke-width="1" d="M34.8505+97.7122C37.5483+94.3398+45.1921+93.4547+46.9396+97.996L45.5404+98.7936C45.2951+99.2349+43.363+97.0661+42.0824+96.9207C39.7617+96.6571+37.6873+96.9494+36.017+98.5949" fill="#000000" stroke-linecap="butt" opacity="1" stroke-linejoin="round"/>
<path stroke="#000000" stroke-width="1" d="M52.9105+97.8174C56.5484+92.4608+61.8343+94.621+63.9856+96.4302C64.7433+97.0674+65.1121+97.661+64.8831+97.8673L63.4713+97.7359C63.4782+98.2423+59.02+93.3024+54.0224+98.6588" fill="#000000" stroke-linecap="butt" opacity="1" stroke-linejoin="round"/>
<path stroke="#000000" stroke-width="1" d="M54.3452+22.898C52.4492+23.8324+57.63+21.1195+55.0942+20.6036C54.0373+20.3885+54.5581+24.4131+54.6907+21.8794C54.702+21.6617+54.5911+21.0381+54.5262+21.2463C54.5142+21.285+53.4228+24.6303+54.0109+23.8738C54.6239+23.0852+55.2774+20.1139+54.7734+20.9762C54.273+21.8325+53.0841+22.4675+53.3064+23.9042C53.5566+25.5211+56.0341+20.9027+55.1987+20.8913C53.0504+20.8619+53.3986+24.1639+54.963+22.8641C55.0914+22.7575+56.4433+21.0736+56.4224+20.9081C56.1042+18.3864+53.0693+21.4501+52.3645+23.4588C52.2129+23.8909+57.2289+22.922+55.2259+21.6065C54.7692+21.3065+52.7285+24.9948+54.3164+22.6493C54.3632+22.5802+51.9142+20.1145+53.6973+22.9137C55.9597+26.4654+50.7395+18.0111+55.9614+20.0022C58.9583+21.145+57.1312+25.5984+54.3577+25.5389C49.4762+25.4341+51.4412+20.7183+54.2725+19.1527C56.3108+18.0255+58.8204+24.9757+54.1287+24.7881C50.7557+24.6532+51.5871+18.2296+55.2764+19.225C59.7716+20.4379+55.9109+26.5399+53.4289+24.7931C50.7691+22.9212+52.9518+18.3466+55.706+19.9099C58.5329+21.5146+54.9884+26.0591+52.9724+24.58C50.989+23.1249+52.2757+19.3971+54.7536+19.5227C58.5059+19.713+55.9885+25.0558+54.1732+23.7689C51.3759+21.7859+53.8747+17.1594+56.436+19.5622" fill="#000000" stroke-linecap="butt" opacity="1" stroke-linejoin="round"/>
<path stroke="#000000" stroke-width="1" d="M54.3452+22.898C52.4492+23.8324+57.63+21.1195+55.0942+20.6036C54.0373+20.3885+54.5581+24.4131+54.6907+21.8794C54.702+21.6617+54.5911+21.0381+54.5262+21.2463C54.5142+21.285+53.4228+24.6303+54.0109+23.8738C54.6239+23.0852+55.2774+20.1139+54.7734+20.9762C54.273+21.8325+53.0841+22.4675+53.3064+23.9042C53.5566+25.5211+56.0341+20.9027+55.1987+20.8913C53.0504+20.8619+53.3986+24.1639+54.963+22.8641C55.0914+22.7575+55.1112+22.5456+55.0903+22.3801C54.7721+19.8583+53.0693+21.4501+52.3645+23.4588C52.2129+23.8909+57.2289+22.922+55.2259+21.6065C54.7692+21.3065+52.7285+24.9948+54.3164+22.6493C54.3632+22.5802+51.9142+20.1145+53.6973+22.9137C55.9597+26.4654+50.7395+18.0111+55.9614+20.0022C58.9583+21.145+57.1312+25.5984+54.3577+25.5389C49.4762+25.4341+51.4412+20.7183+54.2725+19.1527C56.3108+18.0255+58.8204+24.9757+54.1287+24.7881C50.7557+24.6532+51.5871+18.2296+55.2764+19.225C59.7716+20.4379+55.9109+26.5399+53.4289+24.7931C50.7691+22.9212+52.9518+18.3466+55.706+19.9099C58.5329+21.5146+54.9884+26.0591+52.9724+24.58C50.989+23.1249+52.2757+19.3971+54.7536+19.5227C58.5059+19.713+55.9885+25.0558+54.1732+23.7689C51.3759+21.7859+53.8747+17.1594+56.436+19.5622" fill="#000000" stroke-linecap="butt" opacity="1" stroke-linejoin="round"/>
<path stroke="#000000" stroke-width="1" d="M54.3452+22.898C52.4492+23.8324+57.63+21.1195+55.0942+20.6036C54.0373+20.3885+54.5581+24.4131+54.6907+21.8794C54.702+21.6617+54.5911+21.0381+54.5262+21.2463C54.5142+21.285+53.4228+24.6303+54.0109+23.8738C54.6239+23.0852+55.2774+20.1139+54.7734+20.9762C54.273+21.8325+53.0841+22.4675+53.3064+23.9042C53.5566+25.5211+56.0341+20.9027+55.1987+20.8913C53.0504+20.8619+53.3986+24.1639+54.963+22.8641C55.0914+22.7575+55.1112+22.5456+55.0903+22.3801C54.7721+19.8583+53.0693+21.4501+52.3645+23.4588C52.2129+23.8909+57.2289+22.922+55.2259+21.6065C54.7692+21.3065+52.7285+24.9948+54.3164+22.6493C54.3632+22.5802+51.9142+20.1145+53.6973+22.9137C55.9597+26.4654+50.7395+18.0111+55.9614+20.0022C58.9583+21.145+57.1312+25.5984+54.3577+25.5389C49.4762+25.4341+51.4412+20.7183+54.2725+19.1527C56.3108+18.0255+58.8204+24.9757+54.1287+24.7881C50.7557+24.6532+51.5871+18.2296+55.2764+19.225C59.7716+20.4379+55.9109+26.5399+53.4289+24.7931C50.7691+22.9212+52.9518+18.3466+55.706+19.9099C58.5329+21.5146+54.9884+26.0591+52.9724+24.58C50.989+23.1249+52.2757+19.3971+54.7536+19.5227C58.5059+19.713+55.9885+25.0558+54.1732+23.7689C51.3759+21.7859+53.8747+17.1594+56.436+19.5622" fill="#000000" stroke-linecap="butt" opacity="1" stroke-linejoin="round"/>
<path stroke="#000000" stroke-width="1" d="M54.3452+22.898C52.4492+23.8324+57.63+21.1195+55.0942+20.6036C54.0373+20.3885+54.5581+24.4131+54.6907+21.8794C54.702+21.6617+54.5911+21.0381+54.5262+21.2463C54.5142+21.285+53.4228+24.6303+54.0109+23.8738C54.6239+23.0852+55.2774+20.1139+54.7734+20.9762C54.273+21.8325+53.0841+22.4675+53.3064+23.9042C53.5566+25.5211+56.0341+20.9027+55.1987+20.8913C53.0504+20.8619+53.3986+24.1639+54.963+22.8641C55.0914+22.7575+55.1112+22.5456+55.0903+22.3801C54.7721+19.8583+53.0693+21.4501+52.3645+23.4588C52.2129+23.8909+57.2289+22.922+55.2259+21.6065C54.7692+21.3065+52.7285+24.9948+54.3164+22.6493C54.3632+22.5802+51.9142+20.1145+53.6973+22.9137C55.9597+26.4654+50.7395+18.0111+55.9614+20.0022C58.9583+21.145+57.1312+25.5984+54.3577+25.5389C49.4762+25.4341+51.4412+20.7183+54.2725+19.1527C56.3108+18.0255+58.8204+24.9757+54.1287+24.7881C50.7557+24.6532+51.5871+18.2296+55.2764+19.225C59.7716+20.4379+55.9109+26.5399+53.4289+24.7931C50.7691+22.9212+52.9518+18.3466+55.706+19.9099C58.5329+21.5146+54.9884+26.0591+52.9724+24.58C50.989+23.1249+52.2757+19.3971+54.7536+19.5227C58.5059+19.713+55.9885+25.0558+54.1732+23.7689C51.3759+21.7859+53.8747+17.1594+56.436+19.5622" fill="#000000" stroke-linecap="butt" opacity="1" stroke-linejoin="round"/>
<path stroke="#000000" stroke-width="1" d="M44.2379+29.9615C42.3651+30.8373+47.4786+28.3033+44.9313+27.9176C43.8696+27.7568+44.4873+31.2918+44.5587+29.0538C44.5648+28.8614+44.4389+28.3146+44.379+28.4999C44.3679+28.5344+43.3576+31.5144+43.9272+30.8311C44.521+30.119+45.1026+27.4808+44.6196+28.255C44.14+29.0238+42.9668+29.6163+43.2237+30.8773C43.5128+32.2964+45.8781+28.1557+45.0427+28.1685C42.8944+28.2013+43.3221+31.1038+44.8547+29.9148C44.9804+29.8172+44.9951+29.6298+44.9702+29.4844C44.5913+27.2692+42.9276+28.7195+42.2715+30.5102C42.1303+30.8954+47.6935+29.0756+45.6595+27.9702C45.1958+27.7182+42.6724+31.8548+44.2031+29.743C44.2482+29.6808+41.7407+27.5732+43.5906+29.993C45.9378+33.0634+40.5157+25.7503+45.7837+27.3636C48.807+28.2895+47.088+32.2668+44.314+32.2901C39.4318+32.3311+41.2824+28.1186+44.0749+26.6605C46.0853+25.6108+48.7615+31.6715+44.067+31.6342C40.692+31.6074+41.3683+25.9198+45.0802+26.6969C49.6029+27.6437+45.8907+33.1305+43.3676+31.6578C40.6637+30.0796+42.7353+25.9857+45.5262+27.2892C48.3907+28.627+44.957+32.7317+42.9061+31.4824C40.8884+30.2533+40.3188+29.8497+44.5648+26.9737C47.6746+24.8673+45.9326+31.8196+44.087+30.7343C41.2429+29.0619+43.6292+24.9135+46.2475+26.9625" fill="#000000" stroke-linecap="butt" opacity="1" stroke-linejoin="round"/>
<path stroke="#000000" stroke-width="1" d="M49.7331+38.2261C49.5414+42.0334+50.0589+46.0802+50.3803+49.878C50.4683+50.918+50.759+56.3051+50.0077+55.1844L50.3517+55.3504C48.807+57.649+48.5705+40.4038+48.6973+38.2982" fill="#000000" stroke-linecap="butt" opacity="1" stroke-linejoin="round"/>
<path stroke="#000000" stroke-width="1" d="M47.9564+6.9016C47.7936+13.1609+49.6789+22.6076+49.0551+26.2197L49.0237+26.2132C49.3183+25.0638+45.6294+7.67487+47.3907+6.78347" fill="#000000" stroke-linecap="butt" opacity="1" stroke-linejoin="round"/>
<path stroke="#000000" stroke-width="1" d="M43.2044+19.291C40.6142+20.0192+17.012+27.7389+25.5603+32.8987C32.9586+37.3644+55.8021+34.6141+63.1174+31.9211C65.1925+31.1571+67.1267+30.5034+68.8669+29.2747C70.6436+28.0203+72.7225+26.0283+73.6042+23.8157C74.1126+22.5399+72.509+20.8727+71.296+20.003C66.3491+16.4558+51.4446+16.584+51.4446+16.584L51.37+16.47C51.37+16.47+84.5984+15.2699+75.3256+26.7984C66.6226+37.6185+47.907+36.4329+35.5799+35.1782C32.4452+34.8591+27.9612+34.9842+25.177+33.2625C16.2058+27.7149+39.8442+19.6818+43.4127+19.2361" fill="#000000" stroke-linecap="butt" opacity="1" stroke-linejoin="round"/>
</g>
</svg>
