<?xml version="1.0" encoding="UTF-8" standalone="no"?> <!-- Created with Vectornator for iOS (http://vectornator.io/) --><!DOCTYPE svg PUBLIC "-//W3C//DTD SVG 1.1//EN" "http://www.w3.org/Graphics/SVG/1.1/DTD/svg11.dtd">
<svg height="100%" style="fill-rule:evenodd;clip-rule:evenodd;stroke-linecap:round;stroke-linejoin:round;" xmlns:xlink="http://www.w3.org/1999/xlink" xmlns="http://www.w3.org/2000/svg" xml:space="preserve" width="100%" xmlns:vectornator="http://vectornator.io" version="1.1" viewBox="0 0 400 100">
<metadata>
<vectornator:setting key="DisplayWhiteBackground" value="0"/>
<vectornator:setting key="RulersVisible" value="1"/>
<vectornator:setting key="GridSpacing" value="36"/>
<vectornator:setting key="Units" value="Pixels"/>
<vectornator:setting key="New" value="1"/>
<vectornator:setting key="DynamicGuides" value="0"/>
<vectornator:setting key="SnapToPoints" value="0"/>
<vectornator:setting key="SnapToGrid" value="0"/>
<vectornator:setting key="SnapToGuides" value="1"/>
<vectornator:setting key="SnapToEdges" value="0"/>
</metadata>
<defs/>
<g id="Layer 1" vectornator:layerName="Layer 1">
<g opacity="1">
<path d="M99.4112+24.8253L76.1312+81.9453L79.6512+81.9453L86.9312+63.8653L115.811+63.8653L123.011+81.9453L126.451+81.9453L103.251+24.8253L99.4112+24.8253ZM88.0512+60.9853L101.251+28.1853L101.491+28.1853L114.691+60.9853L88.0512+60.9853Z" opacity="1" fill="#000000"/>
<path d="M146.987+39.4653C141.547+39.4653+137.467+42.1853+134.747+47.6253L134.747+40.5853L131.627+40.5853L131.627+81.9453L134.747+81.9453L134.747+56.1853C134.747+52.2653+135.867+48.9853+138.187+46.3453C140.427+43.6253+143.227+42.2653+146.587+42.2653C154.027+42.2653+157.787+46.5053+157.787+55.1453L157.787+81.9453L160.907+81.9453L160.907+55.2253C160.907+51.5453+162.027+48.4253+164.267+46.0253C166.427+43.4653+169.147+42.2653+172.507+42.2653C176.507+42.2653+179.387+43.3853+181.307+45.7053C183.067+47.7853+183.947+50.9853+183.947+55.1453L183.947+81.9453L186.987+81.9453L186.987+54.9053C186.987+49.9453+185.707+46.1053+183.307+43.4653C180.827+40.7453+177.387+39.4653+173.067+39.4653C170.107+39.4653+167.547+40.2653+165.307+41.9453C162.987+43.5453+161.227+45.7853+159.947+48.6653C158.027+42.5053+153.707+39.4653+146.987+39.4653Z" opacity="1" fill="#000000"/>
<path d="M197.283+23.7053L197.283+81.9453L200.243+81.9453L200.243+72.2653C203.043+79.4653+208.163+83.0653+215.603+83.0653C221.523+83.0653+226.083+80.8253+229.443+76.4253C232.403+72.4253+233.923+67.3853+233.923+61.3053C233.923+55.2253+232.403+50.1853+229.363+46.1853C226.003+41.7053+221.443+39.4653+215.683+39.4653C208.323+39.4653+203.283+43.1453+200.403+50.5853L200.403+23.7053L197.283+23.7053ZM215.363+42.2653C220.323+42.2653+224.163+44.1053+226.963+47.9453C229.523+51.3053+230.803+55.7853+230.803+61.3053C230.803+66.7453+229.523+71.2253+227.043+74.6653C224.243+78.3453+220.403+80.2653+215.443+80.2653C210.483+80.2653+206.723+78.4253+204.083+74.8253C201.523+71.4653+200.323+67.2253+200.323+61.9453L200.323+60.9053C200.323+55.5453+201.603+51.1453+204.163+47.7053C206.883+44.0253+210.563+42.2653+215.363+42.2653Z" opacity="1" fill="#000000"/>
<path d="M259.019+39.4653C253.259+39.4653+248.699+41.6253+245.179+46.0253C241.819+50.1853+240.219+55.2253+240.219+61.2253C240.219+67.7053+241.899+72.9853+245.419+77.0653C248.779+81.0653+253.339+83.0653+259.099+83.0653C264.219+83.0653+268.379+81.5453+271.659+78.5853C274.299+76.0253+276.139+72.7453+277.099+68.6653L273.819+68.6653C272.859+72.1853+271.259+74.9053+269.179+76.8253C266.619+79.0653+263.259+80.2653+259.099+80.2653C254.459+80.2653+250.699+78.5853+247.819+75.3053C245.019+72.1053+243.579+67.7053+243.419+62.2653L277.979+62.2653C277.659+55.2253+276.139+49.7853+273.419+46.0253C270.219+41.6253+265.419+39.4653+259.019+39.4653ZM259.099+42.2653C268.699+42.2653+273.899+48.0253+274.779+59.5453L243.419+59.5453C243.739+54.5853+245.259+50.4253+248.059+47.1453C250.859+43.8653+254.539+42.2653+259.099+42.2653Z" opacity="1" fill="#000000"/>
<path d="M294.675+27.2253L291.635+28.5853L291.635+40.5853L282.275+40.5853L282.275+43.3853L291.635+43.3853L291.635+73.2253C291.635+76.1053+292.115+78.1853+293.235+79.6253C294.435+81.1453+296.595+81.9453+299.715+81.9453L305.155+81.9453L305.155+79.1453L299.955+79.1453C297.875+79.1453+296.435+78.6653+295.795+77.7853C294.995+76.9053+294.675+75.3853+294.675+73.2253L294.675+43.3853L306.115+43.3853L306.115+40.5853L294.675+40.5853L294.675+27.2253Z" opacity="1" fill="#000000"/>
<path d="M330.011+39.4653C324.251+39.4653+319.691+41.6253+316.171+46.0253C312.811+50.1853+311.211+55.2253+311.211+61.2253C311.211+67.7053+312.891+72.9853+316.411+77.0653C319.771+81.0653+324.331+83.0653+330.091+83.0653C335.211+83.0653+339.371+81.5453+342.651+78.5853C345.291+76.0253+347.131+72.7453+348.091+68.6653L344.811+68.6653C343.851+72.1853+342.251+74.9053+340.171+76.8253C337.611+79.0653+334.251+80.2653+330.091+80.2653C325.451+80.2653+321.691+78.5853+318.811+75.3053C316.011+72.1053+314.571+67.7053+314.411+62.2653L348.971+62.2653C348.651+55.2253+347.131+49.7853+344.411+46.0253C341.211+41.6253+336.411+39.4653+330.011+39.4653ZM330.091+42.2653C339.691+42.2653+344.891+48.0253+345.771+59.5453L314.411+59.5453C314.731+54.5853+316.251+50.4253+319.051+47.1453C321.851+43.8653+325.531+42.2653+330.091+42.2653Z" opacity="1" fill="#000000"/>
<path d="M356.867+23.7053L356.867+81.9453L359.987+81.9453L359.987+67.2253L369.427+58.7453L387.587+81.9453L391.667+81.9453L371.667+56.6653L389.827+40.5853L385.347+40.5853L359.987+63.2253L359.987+23.7053L356.867+23.7053Z" opacity="1" fill="#000000"/>
</g>
<path stroke="#000000" stroke-width="1" d="M14.6251+94.647C17.7752+78.5627+39.9339+74.8899+51.9977+83.2776C55.2652+85.5494+58.8782+94.9069+58.9856+94.7548L57.2515+95.0795C57.2778+96.01+53.5458+89.5391+51.4252+87.4347C41.0916+77.1798+21.2763+81.4963+16.2577+94.7613" fill="#000000" stroke-linecap="butt" opacity="1" stroke-linejoin="round"/>
<path stroke="#000000" stroke-width="1" d="M17.7089+82.1303C12.8867+75.0671+7.01518+62.9406+6.33124+54.4225C5.69124+46.4516+9.66701+39.0435+18.0173+45.3982C24.9741+50.6923+29.4202+61.4499+32.3183+69.4179C32.8605+70.9086+36.3831+79.4243+34.5471+79.3984L34.3667+78.7677C32.5631+79.4384+30.1054+70.3885+29.4768+68.8251C27.1146+62.95+19.774+42.5317+10.5276+45.0854C7.7305+45.8579+8.01622+53.1639+8.46295+55.3845C10.2843+64.4385+15.0669+73.4682+19.0144+81.6967" fill="#000000" stroke-linecap="butt" opacity="1" stroke-linejoin="round"/>
<path stroke="#000000" stroke-width="1" d="M41.6856+81.8938C44.599+73.6017+48.8268+34.8836+66.4931+45.1405C75.8858+50.5939+65.5387+69.2737+62.281+75.7172C61.408+77.444+56.8589+86.7154+55.4966+87.8206C54.1342+88.9257+54.8519+88.7328+54.8519+88.7328C52.9653+88.2117+57.9862+78.7774+58.5778+77.2338C61.3296+70.054+72.3221+52.7115+66.4618+47.4662C58.0154+39.9062+51.8194+52.8942+48.0416+66.0461C47.9244+66.4542+45.964+77.5427+43.0917+82.2789" fill="#000000" stroke-linecap="butt" opacity="1" stroke-linejoin="round"/>
<path stroke="#000000" stroke-width="1" d="M16.3055+57.3824C17.7486+63.1635+19.7618+68.1881+22.7048+73.1888C23.6959+74.8728+24.9329+76.4777+25.9645+78.1892C26.298+78.7424+27.9537+79.4545+27.319+79.5753C25.8179+79.861+25.9891+79.4759+25.8618+80.2786L26.828+80.5432C25.146+88.2905+14.1323+60.5027+14.0639+57.3324" fill="#000000" stroke-linecap="butt" opacity="1" stroke-linejoin="round"/>
<path stroke="#000000" stroke-width="1" d="M59.6987+57.7045C59.7884+57.6348+58.4204+64.8368+55.9917+71.3663C53.9503+76.8549+51.3011+81.9527+50.2357+81.458L49.4709+82.6046C48.3894+82.4962+51.4211+75.8695+53.882+69.7178C55.7208+65.1211+56.466+59.7251+56.8928+56.9361" fill="#000000" stroke-linecap="butt" opacity="1" stroke-linejoin="round"/>
<path stroke="#000000" stroke-width="1" d="M18.3593+81.8339L18.4201+81.9322L18.6345+82.2786C19.8032+84.0762+20.2959+83.6941+19.4668+84.8205C19.2121+85.1666+18.9107+84.159+18.6988+83.7851C17.9812+82.5194+17.528+80.9859+16.7637+79.7171C16.4904+79.2634+15.6068+77.9428+15.8856+78.393C16.0324+78.6302+21.233+83.8501+21.6581+84.055L21.5969+84.2788C20.3681+84.9859+15.0738+79.4269+16.5549+77.8765C17.4731+76.9154+22.6699+91.4365+17.5426+82.1565" fill="#000000" stroke-linecap="butt" opacity="1" stroke-linejoin="round"/>
<path stroke="#000000" stroke-width="1" d="M21.7878+95.1897C24.4856+91.8173+32.1293+90.9322+33.8769+95.4735L32.4777+96.2711C32.2324+96.7124+30.3002+94.5436+29.0197+94.3982C26.699+94.1347+24.6246+94.4269+22.9543+96.0724" fill="#000000" stroke-linecap="butt" opacity="1" stroke-linejoin="round"/>
<path stroke="#000000" stroke-width="1" d="M39.8477+95.2949C43.4857+89.9383+48.7716+92.0985+50.9228+93.9077C51.6805+94.5449+52.0494+95.1385+51.8204+95.3449L50.4086+95.2134C50.4155+95.7198+45.9573+90.7799+40.9596+96.1363" fill="#000000" stroke-linecap="butt" opacity="1" stroke-linejoin="round"/>
<path stroke="#000000" stroke-width="1" d="M41.2825+20.3755C39.3864+21.3099+44.5672+18.597+42.0314+18.0811C40.9745+17.866+41.4954+21.8906+41.6279+19.3569C41.6393+19.1392+41.5283+18.5156+41.4635+18.7238C41.4514+18.7625+40.36+22.1078+40.9482+21.3513C41.5611+20.5627+42.2146+17.5914+41.7107+18.4537C41.2103+19.31+40.0213+19.945+40.2436+21.3817C40.4938+22.9986+42.9714+18.3802+42.1359+18.3688C39.9876+18.3394+40.3358+21.6414+41.9003+20.3417C42.0286+20.235+43.3805+18.5511+43.3596+18.3856C43.0414+15.8639+40.0066+18.9276+39.3018+20.9363C39.1502+21.3684+44.1662+20.3995+42.1632+19.084C41.7065+18.784+39.6658+22.4723+41.2537+20.1268C41.3004+20.0577+38.8515+17.592+40.6346+20.3912C42.8969+23.9429+37.6767+15.4886+42.8986+17.4797C45.8955+18.6225+44.0685+23.0759+41.2949+23.0164C36.4134+22.9116+38.3785+18.1958+41.2097+16.6302C43.248+15.503+45.7576+22.4532+41.0659+22.2656C37.6929+22.1307+38.5243+15.7071+42.2137+16.7025C46.7088+17.9154+42.8481+24.0174+40.3662+22.2706C37.7064+20.3987+39.8891+15.8241+42.6433+17.3874C45.4701+18.9921+41.9257+23.5366+39.9096+22.0575C37.9262+20.6024+39.2129+16.8746+41.6908+17.0002C45.4431+17.1905+42.9258+22.5333+41.1105+21.2464C38.3132+19.2634+40.812+14.6369+43.3732+17.0397" fill="#000000" stroke-linecap="butt" opacity="1" stroke-linejoin="round"/>
<path stroke="#000000" stroke-width="1" d="M41.2825+20.3755C39.3864+21.3099+44.5672+18.597+42.0314+18.0811C40.9745+17.866+41.4954+21.8906+41.6279+19.3569C41.6393+19.1392+41.5283+18.5156+41.4635+18.7238C41.4514+18.7625+40.36+22.1078+40.9482+21.3513C41.5611+20.5627+42.2146+17.5914+41.7107+18.4537C41.2103+19.31+40.0213+19.945+40.2436+21.3817C40.4938+22.9986+42.9714+18.3802+42.1359+18.3688C39.9876+18.3394+40.3358+21.6414+41.9003+20.3417C42.0286+20.235+42.0484+20.0231+42.0275+19.8576C41.7093+17.3358+40.0066+18.9276+39.3018+20.9363C39.1502+21.3684+44.1662+20.3995+42.1632+19.084C41.7065+18.784+39.6658+22.4723+41.2537+20.1268C41.3004+20.0577+38.8515+17.592+40.6346+20.3912C42.8969+23.9429+37.6767+15.4886+42.8986+17.4797C45.8955+18.6225+44.0685+23.0759+41.2949+23.0164C36.4134+22.9116+38.3785+18.1958+41.2097+16.6302C43.248+15.503+45.7576+22.4532+41.0659+22.2656C37.6929+22.1307+38.5243+15.7071+42.2137+16.7025C46.7088+17.9154+42.8481+24.0174+40.3662+22.2706C37.7064+20.3987+39.8891+15.8241+42.6433+17.3874C45.4701+18.9921+41.9257+23.5366+39.9096+22.0575C37.9262+20.6024+39.2129+16.8746+41.6908+17.0002C45.4431+17.1905+42.9258+22.5333+41.1105+21.2464C38.3132+19.2634+40.812+14.6369+43.3732+17.0397" fill="#000000" stroke-linecap="butt" opacity="1" stroke-linejoin="round"/>
<path stroke="#000000" stroke-width="1" d="M41.2825+20.3755C39.3864+21.3099+44.5672+18.597+42.0314+18.0811C40.9745+17.866+41.4954+21.8906+41.6279+19.3569C41.6393+19.1392+41.5283+18.5156+41.4635+18.7238C41.4514+18.7625+40.36+22.1078+40.9482+21.3513C41.5611+20.5627+42.2146+17.5914+41.7107+18.4537C41.2103+19.31+40.0213+19.945+40.2436+21.3817C40.4938+22.9986+42.9714+18.3802+42.1359+18.3688C39.9876+18.3394+40.3358+21.6414+41.9003+20.3417C42.0286+20.235+42.0484+20.0231+42.0275+19.8576C41.7093+17.3358+40.0066+18.9276+39.3018+20.9363C39.1502+21.3684+44.1662+20.3995+42.1632+19.084C41.7065+18.784+39.6658+22.4723+41.2537+20.1268C41.3004+20.0577+38.8515+17.592+40.6346+20.3912C42.8969+23.9429+37.6767+15.4886+42.8986+17.4797C45.8955+18.6225+44.0685+23.0759+41.2949+23.0164C36.4134+22.9116+38.3785+18.1958+41.2097+16.6302C43.248+15.503+45.7576+22.4532+41.0659+22.2656C37.6929+22.1307+38.5243+15.7071+42.2137+16.7025C46.7088+17.9154+42.8481+24.0174+40.3662+22.2706C37.7064+20.3987+39.8891+15.8241+42.6433+17.3874C45.4701+18.9921+41.9257+23.5366+39.9096+22.0575C37.9262+20.6024+39.2129+16.8746+41.6908+17.0002C45.4431+17.1905+42.9258+22.5333+41.1105+21.2464C38.3132+19.2634+40.812+14.6369+43.3732+17.0397" fill="#000000" stroke-linecap="butt" opacity="1" stroke-linejoin="round"/>
<path stroke="#000000" stroke-width="1" d="M41.2825+20.3755C39.3864+21.3099+44.5672+18.597+42.0314+18.0811C40.9745+17.866+41.4954+21.8906+41.6279+19.3569C41.6393+19.1392+41.5283+18.5156+41.4635+18.7238C41.4514+18.7625+40.36+22.1078+40.9482+21.3513C41.5611+20.5627+42.2146+17.5914+41.7107+18.4537C41.2103+19.31+40.0213+19.945+40.2436+21.3817C40.4938+22.9986+42.9714+18.3802+42.1359+18.3688C39.9876+18.3394+40.3358+21.6414+41.9003+20.3417C42.0286+20.235+42.0484+20.0231+42.0275+19.8576C41.7093+17.3358+40.0066+18.9276+39.3018+20.9363C39.1502+21.3684+44.1662+20.3995+42.1632+19.084C41.7065+18.784+39.6658+22.4723+41.2537+20.1268C41.3004+20.0577+38.8515+17.592+40.6346+20.3912C42.8969+23.9429+37.6767+15.4886+42.8986+17.4797C45.8955+18.6225+44.0685+23.0759+41.2949+23.0164C36.4134+22.9116+38.3785+18.1958+41.2097+16.6302C43.248+15.503+45.7576+22.4532+41.0659+22.2656C37.6929+22.1307+38.5243+15.7071+42.2137+16.7025C46.7088+17.9154+42.8481+24.0174+40.3662+22.2706C37.7064+20.3987+39.8891+15.8241+42.6433+17.3874C45.4701+18.9921+41.9257+23.5366+39.9096+22.0575C37.9262+20.6024+39.2129+16.8746+41.6908+17.0002C45.4431+17.1905+42.9258+22.5333+41.1105+21.2464C38.3132+19.2634+40.812+14.6369+43.3732+17.0397" fill="#000000" stroke-linecap="butt" opacity="1" stroke-linejoin="round"/>
<path stroke="#000000" stroke-width="1" d="M31.1752+27.439C29.3023+28.3148+34.4158+25.7808+31.8685+25.3951C30.8068+25.2343+31.4245+28.7693+31.4959+26.5313C31.502+26.3389+31.3761+25.7921+31.3163+25.9774C31.3052+26.0119+30.2948+28.9919+30.8645+28.3087C31.4582+27.5965+32.0399+24.9583+31.5569+25.7325C31.0773+26.5013+29.9041+27.0938+30.161+28.3548C30.45+29.7739+32.8153+25.6332+31.9799+25.646C29.8317+25.6788+30.2594+28.5813+31.7919+27.3923C31.9176+27.2947+31.9323+27.1073+31.9075+26.9619C31.5286+24.7467+29.8648+26.197+29.2087+27.9877C29.0676+28.3729+34.6307+26.5532+32.5967+25.4477C32.133+25.1957+29.6096+29.3323+31.1404+27.2205C31.1855+27.1583+28.678+25.0507+30.5279+27.4705C32.875+30.5409+27.453+23.2278+32.7209+24.8411C35.7442+25.767+34.0252+29.7443+31.2513+29.7676C26.369+29.8086+28.2197+25.5961+31.0122+24.138C33.0226+23.0883+35.6987+29.149+31.0043+29.1118C27.6292+29.085+28.3055+23.3973+32.0175+24.1744C36.5402+25.1212+32.828+30.608+30.3049+29.1353C27.6009+27.5571+29.6726+23.4632+32.4634+24.7667C35.3279+26.1046+31.8943+30.2092+29.8434+28.9599C27.8256+27.7308+27.256+27.3272+31.502+24.4512C34.6118+22.3448+32.8699+29.2971+31.0242+28.2118C28.1802+26.5394+30.5665+22.391+33.1847+24.44" fill="#000000" stroke-linecap="butt" opacity="1" stroke-linejoin="round"/>
<path stroke="#000000" stroke-width="1" d="M36.6703+35.7036C36.4787+39.5109+36.9962+43.5577+37.3175+47.3555C37.4055+48.3955+37.6963+53.7826+36.945+52.6619L37.2889+52.828C35.7443+55.1265+35.5078+37.8813+35.6346+35.7757" fill="#000000" stroke-linecap="butt" opacity="1" stroke-linejoin="round"/>
<path stroke="#000000" stroke-width="1" d="M34.8937+4.37911C34.7309+10.6384+36.6162+20.0851+35.9924+23.6972L35.961+23.6907C36.2555+22.5413+32.5667+5.15238+34.328+4.26097" fill="#000000" stroke-linecap="butt" opacity="1" stroke-linejoin="round"/>
<path stroke="#000000" stroke-width="1" d="M30.1417+16.7685C27.5514+17.4967+3.94921+25.2164+12.4975+30.3762C19.8958+34.8419+42.7393+32.0917+50.0546+29.3986C52.1298+28.6346+54.0639+27.9809+55.8042+26.7522C57.5808+25.4978+59.6597+23.5058+60.5414+21.2932C61.0499+20.0174+59.4462+18.3502+58.2333+17.4805C53.2864+13.9334+38.3818+14.0615+38.3818+14.0615L38.3072+13.9475C38.3072+13.9475+71.5357+12.7474+62.2628+24.2759C53.5598+35.0961+34.8443+33.9104+22.5172+32.6557C19.3825+32.3366+14.8985+32.4618+12.1143+30.74C3.14308+25.1924+26.7814+17.1593+30.3499+16.7136" fill="#000000" stroke-linecap="butt" opacity="1" stroke-linejoin="round"/>
</g>
</svg>
