<?xml version="1.0" encoding="utf-8"?>
<!-- Generator: Adobe Illustrator 24.2.3, SVG Export Plug-In . SVG Version: 6.00 Build 0)  -->
<svg version="1.1" xmlns="http://www.w3.org/2000/svg" xmlns:xlink="http://www.w3.org/1999/xlink" x="0px" y="0px"
	 viewBox="0 0 243 448" style="enable-background:new 0 0 243 448;" xml:space="preserve">
<style type="text/css">
	.st0{fill:#FFFFFF;stroke:#000000;stroke-miterlimit:10;}
	.st1{stroke:#000000;stroke-miterlimit:10;}
	.st2{stroke:#000000;stroke-width:0.75;stroke-miterlimit:10;}
	.st3{stroke:#000000;stroke-width:0.25;stroke-miterlimit:10;}
	.st4{fill:#FFFFFF;stroke:#000000;stroke-width:0.25;stroke-miterlimit:10;}
	.st5{fill:none;stroke:#000000;stroke-miterlimit:10;}
	.st6{fill:none;stroke:#000000;stroke-width:0.75;stroke-miterlimit:10;}
</style>
<g id="Background">
	<rect x="0.5" y="0.5" class="st0" width="242" height="448"/>
	<path class="st0" d="M0.5,448.5c242-64,242-64,242-64"/>
	<rect x="0.5" y="0.5" class="st1" width="242" height="384"/>
	<polygon class="st1" points="69.21,428.5 0.92,385.5 137.5,385.5 	"/>
	<polygon class="st1" points="69.5,428.92 0.5,448.34 0.5,409.5 	"/>
	<polygon class="st1" points="147.02,378.36 239.04,383.9 70.09,429.17 	"/>
	<rect x="0.5" y="376.5" class="st1" width="69" height="52"/>
	<polygon class="st1" points="1.97,448 79.77,211.71 242.5,384.5 	"/>
</g>
<g id="shadow">
	<g id="v">
		<path class="st1" d="M221.14,392.85"/>
		<path class="st1" d="M182.8,408.23c46.65-22.96,47.34-17.71,47.34-17.71c4.31,3.54-44.27,23.12-44.27,23.12
			c50.65-13.91,56.1-8.35,56.1-8.35c1.3,4.32-53.03,13.75-53.03,13.75c-1.93,6.71-16.39,3.48-16.39,3.48l-5.76-10.14
			C173.34,403.7,182.8,408.23,182.8,408.23z"/>
		<path class="st1" d="M143.63,416.06"/>
		<path class="st1" d="M148.64,404.68"/>
		<path class="st1" d="M153.01,424.49"/>
		<path class="st1" d="M156.81,419.06"/>
		<path class="st1" d="M154.57,396.93"/>
		<path class="st1" d="M166.79,412.38c-5.84-0.56-10.59,0.82-13.74,2.22c-0.2,0.09-0.39,0.17-0.57,0.26
			c-2.38,1.13-3.7,2.19-3.7,2.19l5.76,10.14c10.93,1.04,18.01-4.67,18.01-4.67"/>
		<path class="st1" d="M146.48,412.99c3.39-0.1,5.42,2.15,5.42,2.15l-3.12,1.91c0,0-1,0.26-2.77-0.83S146.48,412.99,146.48,412.99z"
			/>
		<path class="st1" d="M159.3,427.4c0,0,0.72,2.59-1.9,4.05c0,0-3.77-0.57-3.54-2.19l0.68-2.07"/>
		<path class="st1" d="M166.24,412.33c-10.37-1-13.37-0.22-13.37-0.22c-1.62,1.2,0.45,1.73,0.45,1.73"/>
		<path class="st1" d="M172.04,422.71c-6.72,5.43-9.72,6.21-9.72,6.21c-2.39-0.16-1.38-1.49-1.38-1.49"/>
		<g>
			<ellipse class="st2" cx="182.17" cy="419.25" rx="2.14" ry="1.45"/>
			<ellipse class="st3" cx="181.79" cy="418.57" rx="0.54" ry="0.36"/>
			<ellipse class="st3" cx="182.56" cy="419.92" rx="0.54" ry="0.36"/>
			<ellipse class="st3" cx="183.18" cy="418.99" rx="0.54" ry="0.36"/>
			<ellipse class="st3" cx="181.17" cy="419.51" rx="0.54" ry="0.36"/>
		</g>
		<g>
			<ellipse class="st2" cx="177.57" cy="411.14" rx="2.14" ry="1.45"/>
			<ellipse class="st3" cx="177.18" cy="410.46" rx="0.54" ry="0.36"/>
			<ellipse class="st3" cx="177.95" cy="411.81" rx="0.54" ry="0.36"/>
			<ellipse class="st3" cx="178.57" cy="410.88" rx="0.54" ry="0.36"/>
			<ellipse class="st3" cx="176.56" cy="411.39" rx="0.54" ry="0.36"/>
		</g>
		<path class="st1" d="M183.66,409.69c20.43-9.67,37.68-16.8,38.56-15.95"/>
		<path class="st1" d="M185.41,411.81c21.06-9.24,37.52-17.33,36.8-18.08"/>
		<path class="st1" d="M184.14,409.56"/>
		<path class="st1" d="M182.8,408.23c4.07,5.15,6.15,10.82,6.15,10.82"/>
		<path class="st1" d="M188.57,417.39c23.98-4.65,43.03-9.21,42.61-10.21"/>
		<path class="st1" d="M187.23,415.13c23.88-5.24,43.54-8.8,43.95-7.95"/>
		<ellipse class="st2" cx="176.87" cy="415.97" rx="1.07" ry="0.72"/>
		<line class="st2" x1="175.87" y1="416.23" x2="173.87" y2="416.75"/>
		<path class="st2" d="M173.87,416.75c-0.55,0.14-0.83,0.56-0.62,0.94"/>
		<path class="st2" d="M173.25,417.68c0,0,0.26,0.45,0.58,1.01"/>
		<path class="st2" d="M173.87,416.75c-0.55,0.14-1.17-0.04-1.38-0.42"/>
		<path class="st2" d="M172.48,416.33c0,0-0.26-0.45-0.58-1.01"/>
	</g>
</g>
<g id="Layer_1">
</g>
<g id="Bunny">
	<path class="st0" d="M131.5,354.5"/>
	<path class="st0" d="M138.5,395.5c-14-52-7-50-7-50c6-2,15,50,15,50c-1-51,8-53,8-53c6,1,0,53,0,53c8,5-1,16-1,16h-15
		C129.5,401.5,138.5,395.5,138.5,395.5z"/>
	<path class="st0" d="M135.5,433.5"/>
	<path class="st0" d="M122.5,423.5"/>
	<path class="st0" d="M159.5,439.5"/>
	<path class="st0" d="M149.5,429.5"/>
	<path class="st0" d="M164.5,436.5"/>
	<path class="st0" d="M143.78,423.5"/>
	<path class="st0" d="M113.5,403.5"/>
	<path class="st0" d="M138.5,411.5c-2.67,4.81-2.49,9.62-1.74,13.06c0.05,0.21,0.1,0.42,0.15,0.63c0.66,2.63,1.59,4.31,1.59,4.31h15
		c5-9,0-18,0-18"/>
	<path class="st0" d="M132.5,429.5c1-3,4.58-3.66,4.58-3.66l1.42,3.66c0,0,0,1-2,2S132.5,429.5,132.5,429.5z"/>
	<path class="st0" d="M155.36,425.46c0,0,3.58,0.66,4.58,3.66c0,0-2,3-4,2l-2.44-1.62"/>
	<path class="st0" d="M138.26,411.96c-4.76,8.54-4.76,11.54-4.76,11.54c1,2,2.38,0.46,2.38,0.46"/>
	<path class="st0" d="M153.58,412.04c4.76,8.54,4.76,11.54,4.76,11.54c-1,2-2.38,0.46-2.38,0.46"/>
</g>
<g id="eyes">
	<g>
		<circle class="st2" cx="152.5" cy="401.5" r="2"/>
		<circle class="st4" cx="151.5" cy="401.5" r="0.5"/>
		<circle class="st4" cx="153.5" cy="401.5" r="0.5"/>
		<circle class="st4" cx="152.5" cy="400.5" r="0.5"/>
		<circle class="st4" cx="152.5" cy="402.5" r="0.5"/>
	</g>
	<g>
		<circle class="st2" cx="140.5" cy="401.5" r="2"/>
		<circle class="st4" cx="139.5" cy="401.5" r="0.5"/>
		<circle class="st4" cx="141.5" cy="401.5" r="0.5"/>
		<circle class="st4" cx="140.5" cy="400.5" r="0.5"/>
		<circle class="st4" cx="140.5" cy="402.5" r="0.5"/>
	</g>
	<path class="st5" d="M140.67,395.48c-5.63-22.58-9.06-41.13-7.67-41.48"/>
	<path class="st5" d="M144,395c-4.87-22.92-9.79-41.26-11-41"/>
	<path class="st5" d="M140.67,395"/>
	<path class="st5" d="M138.5,395.5c8-1,16,0,16,0"/>
	<path class="st5" d="M152.24,395.01c2.03-23.18,2.52-42.04,1.09-42.17"/>
	<path class="st5" d="M148.88,395.06c1.23-23.4,3.22-42.28,4.45-42.22"/>
	<circle class="st2" cx="146.5" cy="404.5" r="1"/>
	<line class="st6" x1="146.5" y1="405.5" x2="146.5" y2="407.5"/>
	<path class="st6" d="M146.5,407.5c0,0.55,0.45,1,1,1"/>
	<path class="st6" d="M147.5,408.5c0,0,0.67,0,1.5,0"/>
	<path class="st6" d="M146.5,407.5c0,0.55-0.45,1-1,1"/>
	<path class="st6" d="M145.5,408.5c0,0-0.67,0-1.5,0"/>
</g>
</svg>
